<?xml version="1.0" encoding="UTF-8"?>
<svg id="Layer_1" data-name="Layer 1" xmlns="http://www.w3.org/2000/svg" viewBox="0 0 323.77 361.63">
  <path d="M268.35,113.25C179.89,83.8,91.58,54.4,3.1,24.95c.44-1.4.83-2.7,1.25-3.99,1.2-3.71,2.4-7.41,3.61-11.12.41-1.26.81-2.54,1.32-3.76.82-1.98,2.27-3.48,3.87-4.87,1.49-1.3,3.12-1.51,4.92-.83,2.62,1,5.23,2.03,7.85,3.02,3.15,1.19,6.32,2.36,9.48,3.55,1.87.7,3.73,1.41,5.6,2.11,4.09,1.54,8.18,3.09,12.27,4.62,3.51,1.32,7.04,2.61,10.55,3.93,5.2,1.95,10.4,3.91,15.6,5.89,4.84,1.84,9.66,3.73,14.51,5.55,4.67,1.76,9.36,3.45,14.03,5.19,5.16,1.93,10.32,3.88,15.47,5.82,5.16,1.94,10.32,3.87,15.48,5.81,4.31,1.63,8.61,3.28,12.93,4.9,5.47,2.05,10.96,4.06,16.42,6.12,2.8,1.06,5.57,2.2,8.36,3.27,2.13.81,4.29,1.55,6.42,2.35,5.21,1.95,10.4,3.91,15.61,5.87,5.2,1.95,10.41,3.9,15.62,5.86,5.2,1.95,10.39,3.94,15.61,5.86,4.5,1.66,9.02,3.28,13.56,4.84,4.99,1.71,10.01,3.31,15.01,4.99,2.34.79,4.65,1.67,6.99,2.45,2.02.67,4.06,1.26,6.22,1.92.25-.69.45-1.21.62-1.74,1.3-3.93,3.87-6.51,7.86-7.81,2.82-.92,5.54-.94,8.19.27,4.04,1.84,6.47,4.89,7.22,9.39.33,2-.13,3.87-.16,5.8,0,.57-.06,1.14-.1,1.8.87.4,1.69.87,2.58,1.17,2.47.83,4.98,1.57,7.46,2.39,3.2,1.06,6.39,2.16,9.58,3.27,1.25.43,2.56.78,3.73,1.4,3.18,1.68,4.95,4.29,5.12,7.97.15,3.17-.82,5.85-3.3,7.82-2.47,1.96-5.28,2.78-8.42,1.74-5.86-1.95-11.72-3.89-17.58-5.83-.62-.21-1.27-.35-2.05-.56-.31,1.54-.64,2.95-.86,4.39-.44,2.86-.8,5.73-1.23,8.6-.7,4.7-1.34,9.4-2.19,14.07-.4,2.22-.51,4.42-.55,6.66-.08,5.8-.21,11.61-.33,17.41,0,.24.03.49-.04.71-.84,3.03-.42,6.15-.7,9.22-.29,3.17-.62,6.34-.88,9.51-.19,2.32-.23,4.63-.78,6.93-.35,1.46-.16,3.03-.32,4.54-.25,2.41-.59,4.81-.9,7.21-.25,1.88-.53,3.76-.76,5.64-.18,1.46-.24,2.94-.44,4.4-.46,3.29-.99,6.57-1.48,9.86-.15,1.03-.2,2.09-.38,3.11-.51,2.99-1.08,5.98-1.6,8.97-.14.84-.15,1.71-.28,2.55-.18,1.22-.4,2.43-.6,3.65-.16.98-.29,1.97-.46,2.96-.56,3.18-1.15,6.35-1.7,9.53-.45,2.57-.83,5.16-1.3,7.73-.45,2.43-.97,4.84-1.45,7.27-.36,1.77-.74,3.53-1.07,5.31-.43,2.29-.79,4.58-1.25,6.87-.49,2.47-1.06,4.92-1.58,7.38-.42,2-.79,4.01-1.22,6-.9,4.22-1.83,8.44-2.74,12.67-.44,2.04-.82,4.1-1.29,6.13-.81,3.47-1.69,6.92-2.51,10.39-.49,2.08-.89,4.18-1.38,6.26-.47,2.04-1,4.06-1.5,6.09-.11.46-.24.92-.32,1.39-.25,1.59-.94,2.99-1.87,4.27-1.45,2-2.91,3.99-4.39,5.96-1.86,2.46-4.04,4.55-6.92,5.81-2.38,1.04-4.79,1.07-7.22.17-1.71-.63-3.24-1.58-4.62-2.78-2.61-2.26-4.71-4.96-6.6-7.83-2.88-4.39-5.11-9.12-7.21-13.92-.32-.74-.59-1.51-.79-2.29-.26-.99-.17-1.96.29-2.91,2.76-5.71,4.84-11.68,6.68-17.73,1.16-3.82,2.37-7.62,3.45-11.46,1.13-4.03,2.12-8.09,3.17-12.14.91-3.49,1.87-6.97,2.72-10.48.83-3.42,1.56-6.86,2.35-10.28.47-2.04,1.01-4.05,1.49-6.09.46-1.99.88-3.99,1.32-5.98.87-3.89,1.76-7.78,2.63-11.67.41-1.85.77-3.72,1.17-5.58.59-2.74,1.21-5.47,1.79-8.21.42-2,.82-4,1.22-6,.46-2.33.9-4.67,1.37-6.99.9-4.47,1.82-8.94,2.74-13.41.47-2.28,1.01-4.54,1.48-6.82.41-2,.78-4.01,1.17-6.01.61-3.17,1.23-6.34,1.83-9.52.43-2.29.82-4.58,1.26-6.87.49-2.52,1.04-5.02,1.53-7.54.46-2.38.87-4.76,1.31-7.14.47-2.57.94-5.14,1.42-7.71.55-2.99,1.1-5.98,1.67-8.96.48-2.52,1-5.03,1.48-7.55.16-.84.22-1.7.38-2.54.53-2.8,1.11-5.59,1.62-8.39.48-2.62.89-5.25,1.33-7.87.14-.8.34-1.58.45-2.38.12-.83.18-1.67.29-2.67ZM283.44,113.22c3.84,0,6.8-2.84,6.81-6.54,0-3.93-3.35-7.18-7.36-7.13-3.82.05-6.76,2.94-6.74,6.65.01,3.86,3.3,7.02,7.3,7.02Z" stroke-width="0"/>
  <path d="M1.36,30.48c.79.21,1.43.35,2.06.56,15.91,5.3,31.83,10.59,47.74,15.92,6.44,2.16,12.85,4.42,19.29,6.58,6.35,2.13,12.72,4.19,19.07,6.31,6.35,2.12,12.69,4.27,19.05,6.39,7.3,2.44,14.61,4.84,21.91,7.28,7.34,2.45,14.68,4.93,22.02,7.38,6.31,2.1,12.63,4.17,18.94,6.27,6.35,2.12,12.7,4.27,19.05,6.38,6.36,2.11,12.72,4.2,19.08,6.31,5.95,1.98,11.9,3.97,17.84,5.96.45.15.89.33,1.33.52.9.4.98.56.7,1.54-1.34,4.77-4.44,7.95-9.08,9.46-2.51.82-5.22.79-7.75-.01-6.2-1.96-12.35-4.11-18.53-6.17-5.27-1.76-10.55-3.49-15.83-5.25-5.41-1.8-10.81-3.62-16.22-5.42-5.41-1.8-10.82-3.59-16.23-5.4-5.27-1.76-10.54-3.53-15.81-5.29-6.45-2.15-12.9-4.27-19.34-6.42-4.33-1.44-8.65-2.89-12.98-4.34-5.36-1.79-10.73-3.58-16.09-5.37-5.32-1.78-10.63-3.55-15.95-5.33-5.27-1.76-10.55-3.51-15.82-5.27-5.59-1.87-11.17-3.74-16.76-5.61-6.31-2.1-12.62-4.19-18.93-6.29-1.67-.56-3.34-1.11-4.99-1.7-4-1.44-6.73-4.2-8.24-8.15-1.38-3.6-1.07-7.16.48-10.86Z" stroke-width="0"/>
  <path d="M283.44,113.22c-4,0-7.29-3.17-7.3-7.02-.01-3.7,2.92-6.6,6.74-6.65,4.02-.05,7.37,3.2,7.36,7.13,0,3.7-2.97,6.54-6.81,6.54Z" fill="#fff" stroke-width="0"/>
</svg>