<?xml version="1.0" encoding="UTF-8"?>
<svg id="Layer_1" data-name="Layer 1" xmlns="http://www.w3.org/2000/svg" viewBox="0 0 422.1 275.84">
  <path d="M224.16,275.84h-28.8c-1.97-.5-3.92-1.34-5.91-1.44-16.46-.8-32.98-.88-49.38-2.28-42.1-3.58-84.21-7.3-124.23-22.56-12.07-4.6-15.17-8.29-15.18-21.01-.04-34.71-.03-69.42.01-104.12,0-3.17.35-6.33.48-8.37,18.91,5.49,37.18,12.6,56.11,15.97,63.95,11.4,128.57,14.53,193.46,11.84,44.06-1.83,88-5.24,131.02-15.44,13.47-3.19,26.37-8.81,40.33-13.6,0,39.42.13,78.56-.11,117.69-.05,7.84-4.22,13.82-12.09,16.03-18.15,5.11-36.11,12.05-54.64,14.4-40.08,5.07-80.46,7.72-120.72,11.4-3.47.32-6.91.97-10.36,1.47ZM211.24,244.98c36.81-1.81,64.41-2.3,91.83-4.75,27.09-2.42,54-6.75,80.98-10.37,7.7-1.04,12.85-5.03,12.84-13.46,0-17.64-.09-35.29-.28-52.93-.07-7.09-3.01-10-10.84-8.65-22.1,3.83-44.22,7.95-66.51,10.12-71.18,6.94-142.5,6.22-213.69.24-22.92-1.92-45.62-6.58-68.39-10.19-7.73-1.22-11.39,1.57-11.32,9.43.15,16.75.17,33.5.29,50.25.07,9.06,4.56,14.73,13.55,16.26,15.05,2.55,30.06,5.98,45.23,7,45.13,3.04,90.32,5.09,126.32,7.04Z" stroke-width="0"/>
  <path d="M421.62,53.26c-69.28,24.84-140.03,29.82-211.23,28.64-70.73-1.17-141.94-.94-209.73-29.94,0,12.6-.2,23.64.04,34.68.42,19.35,3.42,25.19,22.37,29.09,34.83,7.17,69.9,14.1,105.22,17.78,62.13,6.47,124.47,5.78,186.66-1.29,31.33-3.56,62.25-8.81,91.94-19.9,8.11-3.03,14.59-7.36,14.69-17.03.13-13.41.03-26.83.03-42.04Z" fill="#fff" stroke-width="0"/>
  <path d="M0,35.97c11.26,13.49,16.51,16.39,39.75,22.37,59.21,15.24,120.05,16.8,180.46,17.41,42.61.44,85.32-6.42,127.94-10.52,22.13-2.13,43.92-6.46,63.61-17.46,4.03-2.25,6.7-6.9,10-10.45-3.61-3.22-6.74-7.38-10.91-9.51-24.72-12.65-51.95-15.66-78.91-19.5C268.22-.74,204.2-2.3,140.13,3.15c-40.51,3.44-81.36,6-119.84,21.04-6.92,2.71-13.03,7.49-20.29,11.78Z" fill="#fff" stroke-width="0"/>
  <path d="M211.24,244.98c-36-1.94-81.19-4-126.32-7.04-15.17-1.02-30.18-4.45-45.23-7-8.99-1.53-13.48-7.19-13.55-16.26-.13-16.75-.14-33.5-.29-50.25-.07-7.86,3.6-10.65,11.32-9.43,22.77,3.61,45.47,8.26,68.39,10.19,71.2,5.97,142.51,6.69,213.69-.24,22.29-2.17,44.42-6.3,66.51-10.12,7.83-1.36,10.77,1.56,10.84,8.65.19,17.64.27,35.29.28,52.93,0,8.43-5.14,12.43-12.84,13.46-26.97,3.63-53.89,7.96-80.98,10.37-27.42,2.45-55.02,2.94-91.83,4.75ZM389.37,163.6c-119.1,17.77-237.25,17.69-356.04.11,0,16.77.39,32.27-.17,47.73-.28,7.6,2.85,11.28,9.79,12.3,21.01,3.08,41.97,6.88,63.09,8.81,61.32,5.62,122.8,5.73,184.18,1.67,29.51-1.95,58.86-6.59,88.18-10.77,3.98-.57,10.27-5.37,10.47-8.53,1.05-16.61.49-33.33.49-51.33Z" fill="#fff" stroke-width="0"/>
  <path d="M421.62,53.26c0,15.21.1,28.63-.03,42.04-.1,9.67-6.58,14-14.69,17.03-29.68,11.09-60.6,16.34-91.94,19.9-62.18,7.07-124.53,7.76-186.66,1.29-35.32-3.68-70.39-10.61-105.22-17.78C4.13,111.84,1.13,106,.71,86.64c-.24-11.04-.04-22.08-.04-34.68,67.79,28.99,139,28.77,209.73,29.94,71.2,1.17,141.95-3.81,211.23-28.64Z" stroke-width="0"/>
  <path d="M0,35.97c7.26-4.29,13.37-9.08,20.29-11.78C58.77,9.15,99.63,6.59,140.13,3.15c64.07-5.44,128.08-3.89,191.81,5.17,26.96,3.83,54.19,6.84,78.91,19.5,4.17,2.13,7.3,6.29,10.91,9.51-3.3,3.55-5.97,8.2-10,10.45-19.69,11-41.48,15.33-63.61,17.46-42.62,4.1-85.33,10.96-127.94,10.52-60.41-.62-121.25-2.17-180.46-17.41C16.51,52.36,11.26,49.46,0,35.97ZM206.54,61.69c23.53-2,43.02-2.8,62.22-5.59,12.86-1.87,25.41-6.26,37.87-10.24,2.85-.91,6.67-4.85,6.6-7.28-.1-3.08-3.09-7.14-5.98-8.81-5.34-3.08-11.36-6.03-17.37-6.76-32.52-3.96-64.94-11.49-97.93-7.31-24.24,3.07-48.31,7.71-72.29,12.49-3.7.74-8.44,5.62-9.09,9.23-.5,2.79,4.01,7.74,7.45,9.66,5.37,3,11.58,5.24,17.68,6.07,24.86,3.36,49.8,6.05,70.84,8.53Z" stroke-width="0"/>
  <path d="M389.37,163.6c0,18,.56,34.71-.49,51.33-.2,3.16-6.49,7.97-10.47,8.53-29.32,4.18-58.67,8.82-88.18,10.77-61.38,4.06-122.86,3.95-184.18-1.67-21.12-1.94-42.08-5.74-63.09-8.81-6.94-1.02-10.07-4.7-9.79-12.3.56-15.47.17-30.96.17-47.73,118.79,17.57,236.94,17.65,356.04-.11Z" stroke-width="0"/>
  <path d="M206.54,61.69c-21.04-2.48-45.99-5.18-70.84-8.53-6.09-.82-12.31-3.07-17.68-6.07-3.44-1.92-7.95-6.88-7.45-9.66.65-3.61,5.39-8.5,9.09-9.23,23.98-4.78,48.05-9.42,72.29-12.49,32.99-4.18,65.4,3.35,97.93,7.31,6.01.73,12.03,3.68,17.37,6.76,2.89,1.67,5.88,5.73,5.98,8.81.08,2.43-3.75,6.37-6.6,7.28-12.46,3.98-25.01,8.37-37.87,10.24-19.2,2.79-38.69,3.59-62.22,5.59ZM117.22,34.59c-.23,1.23-.46,2.47-.69,3.7,6.49,2.49,12.77,6.03,19.49,7.3,49.92,9.42,99.95,9.48,149.87.07,7.02-1.32,13.64-4.8,20.44-7.29l-.72-4.2c-62.8-14.36-125.61-17.79-188.4.42Z" fill="#fff" stroke-width="0"/>
  <path d="M117.22,34.59c62.79-18.2,125.6-14.78,188.4-.42l.72,4.2c-6.8,2.48-13.42,5.96-20.44,7.29-49.93,9.41-99.96,9.35-149.87-.07-6.72-1.27-13.01-4.81-19.49-7.3.23-1.23.46-2.47.69-3.7Z" stroke-width="0"/>
</svg>